<svg xmlns="http://www.w3.org/2000/svg" enable-background="new 0 0 24 24" viewBox="0 0 24 24">
	<path d="M5,18H3.8c-1.704,0-2.912-1.121-3.402-3.156c-0.534-2.229-0.534-3.586,0-5.81C0.853,7.135,2.317,6,4.314,6h2.059c-0.276,0-0.5-0.224-0.5-0.5V3.579c0-1.766,0.516-2.88,3.155-3.346c1.742-0.309,3.802-0.312,5.65-0.006C16.393,0.517,17.5,1.83,17.5,3.575v5.231c0,1.737-1.031,2.693-2.904,2.693H9.114c-1.667,0-3.614,0.918-3.614,3.504V17.5C5.5,17.776,5.276,18,5,18z M4.314,7C2.789,7,1.716,7.826,1.371,9.268c-0.498,2.069-0.498,3.268,0,5.343C1.633,15.7,2.268,17,3.8,17h0.7v-1.996c0-3.111,2.317-4.504,4.614-4.504h5.482c1.334,0,1.904-0.507,1.904-1.693V3.575c0-1.25-0.761-2.155-1.987-2.361c-1.74-0.286-3.676-0.287-5.312,0.005c-2.099,0.37-2.328,1.035-2.328,2.36V5h4.989c0.276,0,0.5,0.224,0.5,0.5v1c0,0.276-0.224,0.5-0.5,0.5H4.314z" />
	<path d="M9.5 4.525C8.673 4.525 8 3.848 8 3.015 8.008 2.178 8.681 1.5 9.5 1.5c.827 0 1.5.68 1.5 1.515C11 3.848 10.327 4.525 9.5 4.525zM9.5 2.5C9.222 2.5 9.003 2.729 9 3.02c0 .276.224.506.5.506S10 3.296 10 3.015C10 2.735 9.771 2.5 9.5 2.5zM12.168 24c-.958 0-1.928-.075-2.846-.228C7.607 23.483 6.5 22.17 6.5 20.425v-5.231c0-1.737 1.031-2.693 2.904-2.693h5.482c1.667 0 3.614-.918 3.614-3.504V6.5C18.5 6.224 18.724 6 19 6h1.2c1.704 0 2.912 1.121 3.402 3.156.534 2.229.534 3.586 0 5.81C23.147 16.865 21.683 18 19.686 18h-7.048 4.989c.276 0 .5.224.5.5v1.921c0 1.766-.516 2.88-3.155 3.346C14.095 23.922 13.138 24 12.168 24zM9.404 13.5c-1.334 0-1.904.507-1.904 1.693v5.231c0 1.25.761 2.155 1.987 2.361 1.74.287 3.676.286 5.312-.005 2.099-.37 2.328-1.035 2.328-2.36V19h-4.989c-.276 0-.5-.224-.5-.5v-1c0-.276.224-.5.5-.5h7.548c1.525 0 2.598-.826 2.943-2.268.498-2.069.498-3.268 0-5.343C22.367 8.3 21.732 7 20.2 7h-.7v1.996c0 3.111-2.317 4.504-4.614 4.504H9.404z" />
	<path d="M14.5,22.5c-0.827,0-1.5-0.68-1.5-1.515c0-0.833,0.673-1.511,1.5-1.511s1.5,0.678,1.5,1.511C15.992,21.822,15.319,22.5,14.5,22.5z M14.5,20.475c-0.276,0-0.5,0.229-0.5,0.511c0,0.279,0.229,0.515,0.5,0.515c0.278,0,0.497-0.229,0.5-0.52C15,20.704,14.776,20.475,14.5,20.475z" />
</svg>